<svg width="131" height="122" viewBox="0 0 131 122" fill="none" xmlns="http://www.w3.org/2000/svg">
<mask id="path-1-inside-1_22_85" fill="white">
<path d="M61.2612 0.0551071C49.9272 0.824387 38.824 4.56819 29.4131 10.825C19.5408 17.3895 11.7967 26.1592 6.64254 36.6983C4.28342 41.4935 3.12951 44.5962 1.89866 49.5196C0.385753 55.5969 -0.0245277 59.0587 0.00111487 65.9309C0.0267574 72.2389 0.308826 74.9058 1.53967 80.342C4.33471 92.8556 11.489 105.19 20.9254 113.78C25.4642 117.934 28.1823 119.549 32.439 120.729L34.5929 121.319H65.4922H96.3915L98.5712 120.729C103.187 119.473 106.623 117.242 111.649 112.216C122.008 101.882 128.265 89.4195 130.547 74.5211C131.086 70.9312 131.163 61.3152 130.676 57.597C130.214 54.1096 129.188 49.1863 128.291 46.0579C126.496 39.878 123.111 32.2365 120.162 27.7234C114.187 18.5434 105.341 11.0045 95.3915 6.61961C88.2885 3.49121 81.288 1.49109 74.1851 0.567955C71.1079 0.157677 63.9537 -0.12439 61.2612 0.0551071ZM72.6721 4.38869C84.3652 5.74775 96.0582 10.2096 104.366 16.4664C105.443 17.2869 106.366 18.0818 106.443 18.2357C106.52 18.4921 103.777 23.7488 103.315 24.2361C103.264 24.2873 102.93 24.1078 102.597 23.8514C98.0583 20.2871 95.1607 18.4921 90.8784 16.5433C84.8267 13.8252 77.6468 11.8507 71.1849 11.1583C67.6206 10.7993 60.1842 10.9788 56.8763 11.543C52.1325 12.3635 45.6962 14.2867 44.6705 15.2099C44.132 15.6971 44.0807 17.0048 44.5679 17.6459C45.2602 18.569 46.0295 18.6203 48.3117 17.8254C59.7227 13.8508 71.1336 13.8765 83.2625 17.8511C89.8527 20.0307 95.6223 23.1591 99.9558 26.9029C101.238 28.0055 101.341 28.185 101.135 28.7748C100.443 30.5954 101.033 32.0827 104.007 35.8521C107.084 39.7754 109.674 44.3911 111.392 49.0837C111.828 50.2889 111.905 50.7505 111.674 51.0069C111.495 51.2633 110.11 51.4685 107.495 51.6992C103.289 52.0326 102.238 52.3147 101.494 53.2891L101.033 53.9045L95.9556 52.289C93.0836 51.3659 90.6989 50.7505 90.4425 50.853C89.0834 51.3402 88.5962 53.007 89.545 53.9558C89.9296 54.3404 94.135 55.802 100.623 57.8278C101.084 57.956 101.341 58.315 101.571 59.0843L101.853 60.1356L93.9555 60.2126C86.1858 60.2895 86.0063 60.2895 85.4678 60.8536C84.7755 61.546 84.7242 62.7768 85.3652 63.4948C85.8012 63.982 86.1345 64.0077 94.2632 64.0077C100.776 64.0077 102.725 64.0846 102.802 64.3154C102.879 64.4949 102.956 65.1103 103.007 65.6488L103.059 66.6745L94.3401 67.931C89.545 68.6233 85.2627 69.3413 84.8011 69.5465C84.2882 69.8029 82.7497 71.5209 80.4931 74.4186C78.5699 76.8802 76.698 79.1111 76.339 79.3932C75.698 79.8804 75.2877 79.9061 65.6204 79.9061C55.9532 79.9061 55.5429 79.8804 54.9019 79.3932C54.5429 79.1111 52.6966 76.8802 50.7734 74.4186C48.3374 71.2902 47.0296 69.8542 46.3885 69.5465C45.8757 69.29 42.0806 68.649 36.9777 67.931C32.2851 67.2899 28.3362 66.6489 28.2079 66.5463C28.0797 66.4437 28.1054 65.9309 28.2336 65.3667L28.4644 64.3923L36.7469 64.2641L45.0295 64.1359L45.6449 63.4179C46.4655 62.4691 46.4142 61.8281 45.5167 60.9049L44.773 60.1613H37.1315H29.5157L29.6696 59.2382C29.7465 58.7253 29.8747 58.2381 29.9516 58.1868C30.0286 58.1099 33.9775 56.8021 38.747 55.2379C52.8761 50.6735 56.1583 50.0325 65.6204 50.0325C72.2106 50.0325 75.1595 50.3658 80.3136 51.571C83.5702 52.3659 83.5703 52.3659 84.3395 51.571C85.1344 50.8018 85.1601 49.8786 84.4164 49.0324C83.7754 48.3401 80.6213 47.5195 75.3646 46.6989C71.8516 46.1348 63.287 45.904 59.5432 46.2887C52.7992 46.9554 49.2092 47.8016 38.0547 51.3915L30.2337 53.9045L29.6439 53.2122C28.849 52.2377 28.0284 52.0326 23.6179 51.6736C21.5409 51.4941 19.6433 51.212 19.4125 51.0582C19.0279 50.7761 19.0279 50.6223 19.592 49.1093C21.2332 44.545 24.5923 38.6215 27.5156 35.1598C29.4901 32.8007 30.1311 31.6211 30.1824 30.2621C30.2337 29.0825 30.285 29.0056 32.4133 27.1593C33.6185 26.108 35.8751 24.3899 37.4393 23.3386C39.0291 22.3129 40.3625 21.2615 40.4651 21.0307C40.7728 20.2102 40.5933 19.3383 39.9522 18.6973C39.4394 18.1844 39.1317 18.0818 38.5419 18.21C37.5675 18.3895 33.439 21.1333 30.7722 23.3642C29.6439 24.2873 28.7208 25.0053 28.6695 24.954C28.6182 24.9284 28.2079 23.9796 27.7207 22.8514C27.2335 21.7231 26.5925 20.2615 26.3104 19.5947L25.7719 18.3895L27.7464 16.8766C34.8237 11.4148 43.4653 7.33759 51.9786 5.44004C58.2097 4.0297 66.2615 3.61942 72.6721 4.38869ZM36.0033 71.7004C40.3112 72.2902 44.055 72.8544 44.3628 72.9826C44.6705 73.0851 46.4911 75.2135 48.4399 77.7008C51.1324 81.1625 52.235 82.3934 53.1582 82.9062C53.7992 83.2909 54.3634 83.5986 54.4146 83.6242C54.4403 83.6499 54.5941 84.7012 54.7736 85.9577C55.0044 87.727 55.1839 88.3425 55.6455 88.804C56.4148 89.5733 57.4148 89.5477 58.1841 88.7528C58.8765 88.086 58.9277 87.4963 58.5944 85.0859L58.4149 83.7524H65.4922H72.5696L71.749 90.9837C71.2875 94.9839 70.9028 98.4456 70.8772 98.6764C70.8772 99.0611 70.6207 99.138 69.236 99.138H67.5949L67.4924 95.907C67.4154 92.7273 67.4154 92.6761 66.6974 92.0606C65.7999 91.2914 65.1845 91.2914 64.287 92.0606C63.569 92.6761 63.569 92.7273 63.4921 95.907L63.3895 99.138H61.7997H60.1842L59.9278 96.9584C59.7483 95.4967 59.4919 94.5993 59.2098 94.2659C58.5687 93.5736 57.184 93.5992 56.4917 94.2915C55.9788 94.8044 55.9532 95.0352 56.0814 97.1122L56.2609 99.3944H55.5942C53.9531 99.3944 52.7222 100.651 51.876 103.19C51.5683 104.138 51.158 105.215 50.9529 105.6L50.5939 106.318H45.9782C40.6702 106.318 39.2342 106.061 36.3879 104.574C33.2595 102.933 27.772 97.2661 24.5667 92.3427C21.5152 87.6501 18.7202 80.8292 17.6432 75.4443C17.2329 73.3416 17.2329 73.1364 17.6176 72.8544C17.8483 72.7005 19.3869 72.4184 21.0537 72.2389C24.7718 71.8543 25.7719 71.5979 26.413 70.9055C26.7463 70.5465 27.1053 70.4183 27.5412 70.4952C27.9002 70.5722 31.6953 71.1107 36.0033 71.7004ZM104.854 70.9312C105.469 71.5979 106.495 71.8543 110.187 72.2389C112.059 72.4441 113.29 72.6749 113.469 72.9056C114.264 73.8544 111.7 82.3165 108.956 87.7527C106.392 92.8556 104.289 95.7275 99.9815 100.061C97.1352 102.907 96.0325 103.856 94.5965 104.574C91.6477 106.113 90.263 106.344 84.9293 106.267L80.2367 106.19L79.2879 103.651C78.7751 102.266 78.134 100.907 77.8776 100.625C77.2622 99.9329 76.1595 99.3944 75.3646 99.3944C75.0056 99.3944 74.7236 99.3175 74.7236 99.1893C74.7236 98.6251 76.4929 83.7012 76.5698 83.6755C78.9802 82.4703 79.2623 82.2139 82.5702 78.0085C84.4165 75.6494 86.1089 73.5211 86.3396 73.3159C86.6217 73.0082 89.1347 72.5723 95.1607 71.7004C99.7764 71.0337 103.751 70.4696 103.982 70.444C104.213 70.444 104.597 70.6491 104.854 70.9312Z"/>
</mask>
<path d="M61.2612 0.0551071C49.9272 0.824387 38.824 4.56819 29.4131 10.825C19.5408 17.3895 11.7967 26.1592 6.64254 36.6983C4.28342 41.4935 3.12951 44.5962 1.89866 49.5196C0.385753 55.5969 -0.0245277 59.0587 0.00111487 65.9309C0.0267574 72.2389 0.308826 74.9058 1.53967 80.342C4.33471 92.8556 11.489 105.19 20.9254 113.78C25.4642 117.934 28.1823 119.549 32.439 120.729L34.5929 121.319H65.4922H96.3915L98.5712 120.729C103.187 119.473 106.623 117.242 111.649 112.216C122.008 101.882 128.265 89.4195 130.547 74.5211C131.086 70.9312 131.163 61.3152 130.676 57.597C130.214 54.1096 129.188 49.1863 128.291 46.0579C126.496 39.878 123.111 32.2365 120.162 27.7234C114.187 18.5434 105.341 11.0045 95.3915 6.61961C88.2885 3.49121 81.288 1.49109 74.1851 0.567955C71.1079 0.157677 63.9537 -0.12439 61.2612 0.0551071ZM72.6721 4.38869C84.3652 5.74775 96.0582 10.2096 104.366 16.4664C105.443 17.2869 106.366 18.0818 106.443 18.2357C106.52 18.4921 103.777 23.7488 103.315 24.2361C103.264 24.2873 102.93 24.1078 102.597 23.8514C98.0583 20.2871 95.1607 18.4921 90.8784 16.5433C84.8267 13.8252 77.6468 11.8507 71.1849 11.1583C67.6206 10.7993 60.1842 10.9788 56.8763 11.543C52.1325 12.3635 45.6962 14.2867 44.6705 15.2099C44.132 15.6971 44.0807 17.0048 44.5679 17.6459C45.2602 18.569 46.0295 18.6203 48.3117 17.8254C59.7227 13.8508 71.1336 13.8765 83.2625 17.8511C89.8527 20.0307 95.6223 23.1591 99.9558 26.9029C101.238 28.0055 101.341 28.185 101.135 28.7748C100.443 30.5954 101.033 32.0827 104.007 35.8521C107.084 39.7754 109.674 44.3911 111.392 49.0837C111.828 50.2889 111.905 50.7505 111.674 51.0069C111.495 51.2633 110.11 51.4685 107.495 51.6992C103.289 52.0326 102.238 52.3147 101.494 53.2891L101.033 53.9045L95.9556 52.289C93.0836 51.3659 90.6989 50.7505 90.4425 50.853C89.0834 51.3402 88.5962 53.007 89.545 53.9558C89.9296 54.3404 94.135 55.802 100.623 57.8278C101.084 57.956 101.341 58.315 101.571 59.0843L101.853 60.1356L93.9555 60.2126C86.1858 60.2895 86.0063 60.2895 85.4678 60.8536C84.7755 61.546 84.7242 62.7768 85.3652 63.4948C85.8012 63.982 86.1345 64.0077 94.2632 64.0077C100.776 64.0077 102.725 64.0846 102.802 64.3154C102.879 64.4949 102.956 65.1103 103.007 65.6488L103.059 66.6745L94.3401 67.931C89.545 68.6233 85.2627 69.3413 84.8011 69.5465C84.2882 69.8029 82.7497 71.5209 80.4931 74.4186C78.5699 76.8802 76.698 79.1111 76.339 79.3932C75.698 79.8804 75.2877 79.9061 65.6204 79.9061C55.9532 79.9061 55.5429 79.8804 54.9019 79.3932C54.5429 79.1111 52.6966 76.8802 50.7734 74.4186C48.3374 71.2902 47.0296 69.8542 46.3885 69.5465C45.8757 69.29 42.0806 68.649 36.9777 67.931C32.2851 67.2899 28.3362 66.6489 28.2079 66.5463C28.0797 66.4437 28.1054 65.9309 28.2336 65.3667L28.4644 64.3923L36.7469 64.2641L45.0295 64.1359L45.6449 63.4179C46.4655 62.4691 46.4142 61.8281 45.5167 60.9049L44.773 60.1613H37.1315H29.5157L29.6696 59.2382C29.7465 58.7253 29.8747 58.2381 29.9516 58.1868C30.0286 58.1099 33.9775 56.8021 38.747 55.2379C52.8761 50.6735 56.1583 50.0325 65.6204 50.0325C72.2106 50.0325 75.1595 50.3658 80.3136 51.571C83.5702 52.3659 83.5703 52.3659 84.3395 51.571C85.1344 50.8018 85.1601 49.8786 84.4164 49.0324C83.7754 48.3401 80.6213 47.5195 75.3646 46.6989C71.8516 46.1348 63.287 45.904 59.5432 46.2887C52.7992 46.9554 49.2092 47.8016 38.0547 51.3915L30.2337 53.9045L29.6439 53.2122C28.849 52.2377 28.0284 52.0326 23.6179 51.6736C21.5409 51.4941 19.6433 51.212 19.4125 51.0582C19.0279 50.7761 19.0279 50.6223 19.592 49.1093C21.2332 44.545 24.5923 38.6215 27.5156 35.1598C29.4901 32.8007 30.1311 31.6211 30.1824 30.2621C30.2337 29.0825 30.285 29.0056 32.4133 27.1593C33.6185 26.108 35.8751 24.3899 37.4393 23.3386C39.0291 22.3129 40.3625 21.2615 40.4651 21.0307C40.7728 20.2102 40.5933 19.3383 39.9522 18.6973C39.4394 18.1844 39.1317 18.0818 38.5419 18.21C37.5675 18.3895 33.439 21.1333 30.7722 23.3642C29.6439 24.2873 28.7208 25.0053 28.6695 24.954C28.6182 24.9284 28.2079 23.9796 27.7207 22.8514C27.2335 21.7231 26.5925 20.2615 26.3104 19.5947L25.7719 18.3895L27.7464 16.8766C34.8237 11.4148 43.4653 7.33759 51.9786 5.44004C58.2097 4.0297 66.2615 3.61942 72.6721 4.38869ZM36.0033 71.7004C40.3112 72.2902 44.055 72.8544 44.3628 72.9826C44.6705 73.0851 46.4911 75.2135 48.4399 77.7008C51.1324 81.1625 52.235 82.3934 53.1582 82.9062C53.7992 83.2909 54.3634 83.5986 54.4146 83.6242C54.4403 83.6499 54.5941 84.7012 54.7736 85.9577C55.0044 87.727 55.1839 88.3425 55.6455 88.804C56.4148 89.5733 57.4148 89.5477 58.1841 88.7528C58.8765 88.086 58.9277 87.4963 58.5944 85.0859L58.4149 83.7524H65.4922H72.5696L71.749 90.9837C71.2875 94.9839 70.9028 98.4456 70.8772 98.6764C70.8772 99.0611 70.6207 99.138 69.236 99.138H67.5949L67.4924 95.907C67.4154 92.7273 67.4154 92.6761 66.6974 92.0606C65.7999 91.2914 65.1845 91.2914 64.287 92.0606C63.569 92.6761 63.569 92.7273 63.4921 95.907L63.3895 99.138H61.7997H60.1842L59.9278 96.9584C59.7483 95.4967 59.4919 94.5993 59.2098 94.2659C58.5687 93.5736 57.184 93.5992 56.4917 94.2915C55.9788 94.8044 55.9532 95.0352 56.0814 97.1122L56.2609 99.3944H55.5942C53.9531 99.3944 52.7222 100.651 51.876 103.19C51.5683 104.138 51.158 105.215 50.9529 105.6L50.5939 106.318H45.9782C40.6702 106.318 39.2342 106.061 36.3879 104.574C33.2595 102.933 27.772 97.2661 24.5667 92.3427C21.5152 87.6501 18.7202 80.8292 17.6432 75.4443C17.2329 73.3416 17.2329 73.1364 17.6176 72.8544C17.8483 72.7005 19.3869 72.4184 21.0537 72.2389C24.7718 71.8543 25.7719 71.5979 26.413 70.9055C26.7463 70.5465 27.1053 70.4183 27.5412 70.4952C27.9002 70.5722 31.6953 71.1107 36.0033 71.7004ZM104.854 70.9312C105.469 71.5979 106.495 71.8543 110.187 72.2389C112.059 72.4441 113.29 72.6749 113.469 72.9056C114.264 73.8544 111.7 82.3165 108.956 87.7527C106.392 92.8556 104.289 95.7275 99.9815 100.061C97.1352 102.907 96.0325 103.856 94.5965 104.574C91.6477 106.113 90.263 106.344 84.9293 106.267L80.2367 106.19L79.2879 103.651C78.7751 102.266 78.134 100.907 77.8776 100.625C77.2622 99.9329 76.1595 99.3944 75.3646 99.3944C75.0056 99.3944 74.7236 99.3175 74.7236 99.1893C74.7236 98.6251 76.4929 83.7012 76.5698 83.6755C78.9802 82.4703 79.2623 82.2139 82.5702 78.0085C84.4165 75.6494 86.1089 73.5211 86.3396 73.3159C86.6217 73.0082 89.1347 72.5723 95.1607 71.7004C99.7764 71.0337 103.751 70.4696 103.982 70.444C104.213 70.444 104.597 70.6491 104.854 70.9312Z" fill="#13A0CD" stroke="black" stroke-width="12" mask="url(#path-1-inside-1_22_85)"/>
<path d="M65.5222 75.175C66.8456 75.175 67.4782 75.166 68.0153 75.0539C68.5391 74.9447 68.9875 74.7345 69.9333 74.2551V74.2541L69.9391 74.2522C74.144 72.1865 76.6218 67.5235 75.822 63.3059V63.303C74.7411 57.4326 69.7264 53.7696 63.8923 54.5539H63.8913C58.3793 55.2856 54.262 60.8932 55.1647 66.387C55.7525 69.9137 58.0031 72.8554 61.2936 74.4026C62.0842 74.7724 62.5156 74.9457 63.0436 75.0422C63.5894 75.142 64.2551 75.1621 65.5222 75.175ZM65.4919 72.3606C64.3358 72.3605 63.1288 72.1573 62.2839 71.7063C59.5048 70.238 58.0303 67.9675 57.9909 65.0754L57.9919 64.7932C58.0054 63.7546 58.1396 62.884 58.4557 62.0725C58.7328 61.3616 59.1406 60.7188 59.694 60.0598L59.9401 59.7766C61.3728 58.1786 63.2798 57.3538 65.4919 57.3538C66.762 57.3538 67.6574 57.5458 68.655 58.0168L68.654 58.0178C70.1986 58.736 71.8235 60.3867 72.5134 61.9319L72.5153 61.9358C72.8996 62.8182 73.0522 63.9175 73.0085 65.0051C72.9646 66.0952 72.7216 67.2158 72.277 68.1467L72.2731 68.1545L72.1169 68.4543C71.3271 69.9163 70.3648 70.8239 68.7009 71.7063C67.8559 72.1574 66.6482 72.3606 65.4919 72.3606Z" fill="#3B494F" stroke="#13A0CD"/>
<path d="M65.5212 75.2747C66.8416 75.2746 67.4863 75.2662 68.0358 75.1516C68.5747 75.0392 69.0345 74.8223 69.9782 74.344L69.9831 74.342C74.224 72.2588 76.7297 67.5538 75.9206 63.2873L75.9196 63.2854C74.8293 57.3632 69.7666 53.6627 63.8786 54.4543L63.8776 54.4553C58.3092 55.1948 54.1541 60.8548 55.0661 66.4036C55.6409 69.8524 57.7918 72.7456 60.944 74.342L61.2516 74.4924C62.0428 74.8625 62.4836 75.0418 63.0251 75.1409C63.5809 75.2425 64.2562 75.2617 65.5212 75.2747ZM65.4919 72.261C64.3441 72.2609 63.1554 72.0586 62.3307 71.6184C59.5807 70.1656 58.1302 67.9262 58.0915 65.0735V64.7952C58.1049 63.7644 58.238 62.9068 58.5485 62.1096C58.8206 61.4113 59.2219 60.7772 59.7702 60.1243L60.0143 59.843C61.4271 58.2672 63.3068 57.4535 65.4919 57.4534C66.7479 57.4534 67.6274 57.6435 68.6091 58.1067L68.61 58.1057C70.1335 58.8131 71.7412 60.4488 72.4216 61.9729L72.4235 61.9758C72.8002 62.8408 72.9512 63.924 72.9079 65.0012C72.8645 66.0804 72.6249 67.1872 72.1872 68.1038L72.1833 68.1096L72.03 68.4065C71.2504 69.8498 70.3023 70.7433 68.654 71.6174H68.655C67.8302 72.0581 66.6404 72.261 65.4919 72.261Z" stroke="black" stroke-width="0.8"/>
</svg>
